<?xml version="1.0" encoding="utf-8"?>
<!-- Generator: Adobe Illustrator 22.1.0, SVG Export Plug-In . SVG Version: 6.00 Build 0)  -->
<svg version="1.1" id="Ebene_1" xmlns="http://www.w3.org/2000/svg" xmlns:xlink="http://www.w3.org/1999/xlink" x="0px" y="0px"
	 viewBox="0 0 500 114.3" style="enable-background:new 0 0 500 114.3;" xml:space="preserve">
<style type="text/css">
	.st0{fill:#FFFFFF;}
</style>
<g>
	<path class="st0" d="M55.5,55.5c6-5.5,9.3-13.2,9.3-22c0-18.1-13.2-31.3-31.3-31.3H0v110.4h35.2c18.7,0,32.4-13.7,32.4-32.4
		C68.1,69.8,63.2,61,55.5,55.5z M17.6,19.2h14.8c8.8,0,14.3,6,14.3,14.3s-6,14.3-14.3,14.3H17.6V19.2z M34.6,95.6h-17V64.8h17
		c9.3,0,15.4,6,15.4,15.4S44,95.6,34.6,95.6z"/>
	<path class="st0" d="M131.3,82.4c0,8.8-6.6,15.4-15.4,15.4s-15.4-6.6-15.4-15.4V2.2H83v78.6c0,19.8,13.7,33.5,33,33.5
		s33-14.3,33-33.5V2.2h-17.6C131.3,2.2,131.3,82.4,131.3,82.4z"/>
	<path class="st0" d="M201.1,0c-19.2,0-33,14.3-33,33.5v47.3c0,19.8,13.7,33.5,33,33.5s33-14.3,33-33.5V48.9h-33v17h15.4v16.5
		c0,8.8-6.6,15.4-15.4,15.4s-15.4-6.6-15.4-15.4V33c0-8.8,6.6-15.4,15.4-15.4s15.4,6.6,15.4,15.4v2.7h17.6v-1.6
		C234.1,14.3,220.3,0,201.1,0z"/>
	<path class="st0" d="M272.5,2.2l-25.3,110.4h17.6l4.9-22H300l4.9,22h17.6L296.7,2.2H272.5z M273.6,73.6l11-48.4l11,48.4H273.6z"/>
	<polygon class="st0" points="324.7,19.2 349.5,19.2 349.5,112.6 366.5,112.6 367,19.2 391.2,19.2 391.2,2.2 324.7,2.2 	"/>
	<polygon class="st0" points="400.5,19.2 424.7,19.2 424.7,112.6 442.3,112.6 442.3,19.2 466.5,19.2 466.5,2.2 400.5,2.2 	"/>
	<rect x="482.4" y="2.2" class="st0" width="17.6" height="110.4"/>
</g>
</svg>
