<svg id="Layer_1" data-name="Layer 1" xmlns="http://www.w3.org/2000/svg" viewBox="0 0 499.65 42.42"><defs><style>.cls-1{fill:#fff;}</style></defs><title>rimac</title><path class="cls-1" d="M144.38,0H123.62a.67.67,0,0,0-.66.67V41.74a.67.67,0,0,0,.66.68h20.76a.67.67,0,0,0,.67-.68V.68A.67.67,0,0,0,144.38,0Z"/><path class="cls-1" d="M39,19.2a.85.85,0,0,0-.58,1.45L62.24,41.84a2.3,2.3,0,0,0,1.51.58h23a.51.51,0,0,0,.33-.89L68.32,24.89a.63.63,0,0,1,.38-1.08c2.83-.18,7.26-.34,11.55-.81,11.52-1.27,17.61-4.63,17.61-11.33C97.86,3.66,90.53,0,75.75,0H.5A.51.51,0,0,0,.17.89L4.92,5.22a2.25,2.25,0,0,0,1.53.6H61.59c10,0,14.19,1.59,14.19,6.54,0,4.53-5.56,6.36-17,6.56-13.53.24-19.84.27-19.84.27Z"/><path class="cls-1" d="M301.1,21.43A.51.51,0,0,0,301,22a.48.48,0,0,0,.46.33h9.44a2.28,2.28,0,0,0,1.47-.54l18.58-16a1.61,1.61,0,0,1,2.17.07L371,41.79a2.27,2.27,0,0,0,1.56.63h23.62a.51.51,0,0,0,.34-.88L353.33.64A2.27,2.27,0,0,0,351.76,0h-24.9a2.25,2.25,0,0,0-1.49.55Z"/><path class="cls-1" d="M256.37.39A2.25,2.25,0,0,1,257.63,0h21.66a.67.67,0,0,1,.66.67V41.74a.68.68,0,0,1-.66.68H258.53a.67.67,0,0,1-.66-.68l0-32.08a.65.65,0,0,0-1-.46L218.21,35a1.61,1.61,0,0,1-1.81,0L165.7.94a.5.5,0,0,1-.2-.57A.51.51,0,0,1,166,0h27.34a2.32,2.32,0,0,1,1.27.39l30.62,19.67a1.64,1.64,0,0,0,1.78,0L256.37.39Z"/><path class="cls-1" d="M499.16,0H440.94c-9.85,0-18.09,1.1-23.83,5.29a19.47,19.47,0,0,0-8.39,15.91c0,6.3,4.57,21.21,31.64,21.21h30.1a.51.51,0,0,0,.36-.87l-4.15-4a2.26,2.26,0,0,0-1.64-.7h-7.35c-17.21,0-26.89-5.42-26.89-15.65s9.55-15.38,24.33-15.38h38.6a2.29,2.29,0,0,0,1.64-.69L499.5.87a.51.51,0,0,0-.35-.86Z"/></svg>